<?xml version="1.0" standalone="no"?>
<!DOCTYPE svg PUBLIC "-//W3C//DTD SVG 20010904//EN"
 "http://www.w3.org/TR/2001/REC-SVG-20010904/DTD/svg10.dtd">
<svg version="1.0" xmlns="http://www.w3.org/2000/svg"
 width="2048.000000pt" height="2048.000000pt" viewBox="0 0 2048.000000 2048.000000"
 preserveAspectRatio="xMidYMid meet">
<metadata>
Created by potrace 1.14, written by Peter Selinger 2001-2017
</metadata>
<g transform="translate(0.000000,2048.000000) scale(0.100000,-0.100000)"
fill="#000000" stroke="none">
<path d="M11438 20475 c-1 -1 -68 -6 -148 -9 -80 -4 -158 -9 -175 -11 -16 -2
-66 -6 -110 -10 -44 -3 -98 -7 -120 -9 -147 -13 -183 -17 -205 -21 -14 -2 -54
-7 -90 -10 -35 -4 -67 -8 -70 -10 -3 -1 -36 -6 -75 -10 -38 -4 -72 -8 -75 -10
-3 -1 -31 -6 -63 -9 -32 -4 -95 -14 -140 -22 -45 -9 -98 -18 -117 -21 -19 -2
-111 -21 -205 -40 -207 -42 -178 -36 -310 -68 -60 -15 -117 -28 -126 -30 -9
-2 -90 -24 -180 -50 -416 -117 -839 -273 -1214 -446 -27 -13 -52 -24 -55 -24
-3 -1 -30 -14 -60 -29 -30 -16 -113 -59 -185 -96 -233 -120 -480 -268 -715
-427 -121 -83 -404 -292 -445 -330 -11 -10 -47 -40 -80 -67 -149 -120 -288
-248 -485 -446 -402 -403 -722 -809 -962 -1225 -68 -116 -198 -374 -243 -480
-9 -22 -23 -53 -30 -70 -21 -45 -76 -185 -81 -204 -2 -9 -22 -68 -44 -131
-113 -317 -219 -776 -256 -1105 -3 -33 -8 -67 -9 -75 -7 -39 -18 -171 -31
-365 -17 -277 -1 -800 31 -1005 2 -14 6 -47 9 -75 5 -46 11 -91 21 -154 2 -13
7 -45 11 -70 3 -25 10 -62 14 -81 5 -19 11 -52 14 -72 3 -21 10 -57 15 -80 6
-24 12 -58 16 -75 7 -41 42 -183 100 -403 55 -209 224 -669 329 -895 181 -387
337 -667 559 -999 54 -82 103 -154 108 -160 5 -6 55 -74 112 -151 387 -525
913 -1065 1493 -1531 133 -106 156 -124 184 -144 12 -8 34 -25 48 -38 15 -12
45 -35 67 -50 22 -15 42 -29 45 -32 3 -4 28 -22 55 -41 28 -18 52 -37 55 -41
8 -9 523 -354 583 -389 28 -17 72 -43 97 -59 25 -16 56 -35 70 -43 14 -8 66
-38 115 -67 228 -133 785 -419 1150 -590 139 -65 614 -285 670 -310 65 -29
683 -315 800 -370 261 -122 729 -359 950 -479 287 -157 669 -393 831 -515 23
-17 54 -40 70 -51 282 -203 589 -512 739 -745 133 -205 317 -645 371 -885 1
-5 9 -37 17 -70 16 -61 42 -191 52 -255 3 -19 7 -46 10 -60 2 -14 7 -47 10
-75 3 -27 8 -66 10 -85 29 -229 20 -589 -21 -850 -23 -143 -27 -164 -59 -291
-43 -169 -136 -417 -205 -545 -17 -30 -28 -54 -25 -54 12 0 325 439 325 456 0
2 22 39 48 82 153 244 306 574 407 877 48 142 104 345 119 430 9 49 15 76 20
93 3 9 8 40 11 67 3 28 8 64 10 80 3 17 7 43 10 59 14 90 20 217 20 426 0 269
-8 379 -41 570 -8 47 -17 94 -18 105 -14 83 -75 314 -112 424 -24 71 -84 234
-99 266 -7 17 -32 72 -55 124 -66 151 -135 278 -285 529 -20 34 -86 134 -95
145 -6 7 -52 70 -102 141 -93 129 -302 386 -414 506 -141 153 -486 491 -678
665 -49 44 -94 85 -100 91 -6 5 -58 52 -116 103 -58 52 -121 108 -140 125 -19
17 -84 74 -145 126 -60 52 -115 99 -121 105 -6 5 -31 26 -55 47 -24 20 -57 48
-74 63 -16 14 -50 43 -75 63 -25 20 -47 39 -50 42 -3 4 -50 44 -105 90 -55 47
-102 87 -105 90 -3 3 -45 39 -95 80 -90 75 -237 200 -370 314 -39 34 -93 79
-119 101 -27 22 -69 58 -94 80 -25 22 -54 47 -66 55 -12 8 -25 19 -31 26 -8
10 -235 207 -349 304 -16 14 -34 30 -40 35 -6 6 -74 67 -151 135 -77 68 -156
138 -175 156 -19 18 -66 61 -104 96 -39 34 -82 74 -97 88 -15 14 -78 72 -140
130 -123 113 -792 780 -848 845 -19 22 -59 67 -90 100 -31 33 -76 83 -101 111
-25 28 -58 66 -75 85 -52 59 -199 233 -230 273 -16 21 -35 44 -41 51 -25 25
-254 326 -336 440 -167 233 -325 485 -462 734 -55 100 -196 384 -196 395 0 3
-13 34 -28 68 -38 82 -112 273 -112 287 0 6 -4 19 -10 29 -49 88 -171 594
-195 807 -4 33 -9 69 -11 80 -23 122 -23 649 1 786 2 13 7 47 10 74 7 66 24
170 30 187 2 7 6 29 9 48 21 144 108 442 199 680 54 141 196 441 277 585 57
101 78 138 144 245 386 633 871 1178 1446 1626 195 152 471 343 605 420 11 6
72 42 135 79 63 37 162 92 220 122 58 30 110 58 115 61 9 6 284 136 340 161
260 117 604 243 920 336 50 14 110 33 135 40 79 24 360 92 495 120 72 14 139
28 150 31 11 2 47 9 80 14 33 6 71 12 85 14 94 17 224 36 270 41 30 3 66 8 80
10 30 5 124 16 165 20 17 1 75 6 130 10 55 4 109 9 120 10 11 1 40 4 65 5 l45
2 -50 9 c-27 4 -72 11 -100 14 -27 3 -57 8 -65 10 -8 2 -44 7 -80 10 -36 3
-72 8 -80 10 -8 2 -47 7 -86 10 -39 3 -80 7 -90 9 -10 2 -57 7 -104 11 -47 3
-101 8 -120 10 -19 2 -78 7 -130 10 -52 4 -120 9 -150 11 -66 5 -1047 14
-1052 9z"/>
<path d="M11617 19115 c-39 -406 -307 -824 -689 -1072 -177 -114 -408 -200
-594 -218 -73 -8 -97 -15 -48 -15 44 0 231 -37 304 -61 104 -34 297 -133 399
-206 93 -67 229 -194 304 -283 58 -70 142 -199 188 -290 40 -80 104 -253 114
-308 2 -15 9 -51 15 -81 5 -29 10 -72 10 -94 0 -53 9 -43 16 19 23 202 107
433 222 610 43 66 50 75 133 173 245 287 619 492 949 518 74 5 92 13 34 14
-21 0 -48 2 -59 4 -11 2 -40 7 -65 10 -91 13 -246 64 -359 117 -313 150 -577
416 -726 732 -75 159 -93 219 -132 451 l-9 50 -7 -70z"/>
<path d="M5918 18805 c-331 -178 -776 -455 -1043 -647 -104 -75 -324 -237
-345 -254 -12 -11 -37 -30 -54 -44 -17 -14 -49 -39 -71 -55 -35 -26 -74 -58
-109 -90 -6 -6 -33 -28 -61 -50 -27 -22 -52 -42 -55 -45 -3 -3 -43 -38 -90
-79 -261 -225 -620 -583 -826 -821 -22 -25 -49 -56 -61 -70 -290 -333 -624
-812 -835 -1195 -76 -138 -288 -572 -288 -590 0 -2 -11 -29 -25 -59 -14 -30
-25 -61 -25 -68 0 -8 -4 -18 -8 -23 -5 -6 -19 -39 -32 -75 -13 -36 -29 -78
-36 -95 -45 -106 -185 -586 -218 -748 -2 -7 -6 -30 -11 -52 -4 -22 -9 -49 -12
-60 -7 -39 -42 -230 -47 -260 -5 -31 -15 -102 -21 -145 -5 -32 -19 -156 -29
-260 -27 -255 -28 -904 -1 -1132 2 -18 6 -64 10 -103 3 -38 8 -81 10 -95 3
-24 13 -98 19 -150 6 -50 17 -125 20 -140 1 -8 6 -37 10 -65 7 -46 18 -110 31
-175 3 -14 8 -41 11 -60 9 -55 80 -362 114 -495 213 -826 600 -1588 1144
-2250 154 -188 255 -298 446 -488 279 -276 480 -450 785 -678 136 -101 453
-320 560 -386 375 -231 574 -342 925 -517 567 -281 1055 -484 1715 -712 172
-60 610 -202 645 -209 8 -2 35 -10 60 -18 25 -9 97 -30 160 -47 63 -17 126
-36 140 -40 32 -12 527 -144 600 -160 30 -7 66 -16 80 -21 26 -8 186 -47 230
-55 14 -3 50 -11 80 -19 30 -8 147 -35 260 -60 113 -25 264 -59 335 -76 72
-17 138 -33 148 -35 10 -2 27 -6 37 -9 10 -3 27 -7 37 -9 21 -4 192 -53 308
-87 216 -64 617 -205 749 -263 93 -41 115 -51 190 -85 788 -358 1346 -870
1577 -1449 32 -79 77 -217 85 -262 3 -14 7 -33 10 -42 25 -83 47 -276 48 -408
0 -91 -11 -269 -19 -310 -2 -13 -7 -42 -10 -65 -9 -60 -42 -199 -70 -291 -30
-97 -31 -106 -8 -74 19 27 21 31 56 75 51 65 217 325 261 410 26 49 51 94 55
100 10 13 113 251 145 335 25 67 90 281 100 335 4 17 9 41 12 55 15 71 34 192
40 250 15 144 8 500 -11 595 -3 11 -7 38 -10 60 -10 74 -65 284 -99 379 -94
261 -233 518 -388 712 -71 90 -296 319 -378 385 -30 24 -57 46 -60 50 -3 3
-50 40 -105 82 -55 42 -104 80 -110 85 -25 19 -291 196 -345 229 -74 44 -327
192 -370 216 -197 109 -661 343 -895 452 -124 58 -344 160 -400 185 -27 12
-75 34 -105 47 -30 14 -154 70 -275 125 -263 119 -257 116 -368 167 -49 23
-90 41 -92 41 -1 0 -52 23 -111 51 -112 53 -201 94 -339 157 -114 53 -691 341
-810 405 -219 118 -467 261 -615 355 -124 78 -390 261 -450 309 -8 6 -62 48
-120 92 -58 45 -143 111 -190 148 -78 62 -115 93 -264 217 -328 273 -775 696
-1031 978 -60 66 -117 128 -126 137 -8 9 -55 63 -105 121 -49 58 -91 107 -94
110 -11 10 -198 247 -241 305 -24 33 -46 62 -50 65 -36 32 -365 529 -460 695
-113 200 -153 274 -229 430 -212 432 -354 819 -464 1260 -19 77 -38 156 -41
175 -3 19 -10 53 -15 75 -5 22 -11 54 -14 70 -3 17 -8 41 -11 55 -5 27 -31
182 -40 240 -2 19 -9 73 -15 120 -9 79 -13 116 -25 245 -23 239 -23 893 -1
1035 3 14 7 63 11 110 3 47 8 100 11 118 2 17 6 47 8 65 3 17 8 57 11 87 3 30
8 62 10 70 2 8 7 39 10 69 4 30 9 63 11 75 2 12 7 35 9 51 35 198 116 494 201
736 83 240 249 611 372 834 112 203 258 441 380 620 70 102 298 414 311 425 4
3 37 43 75 90 196 243 342 404 594 658 90 90 162 166 160 167 -2 2 -65 -29
-140 -70z"/>
<path d="M16630 15370 c-101 -201 -232 -463 -292 -583 l-108 -217 -51 32
c-139 88 -322 181 -474 241 -98 38 -325 113 -365 120 -14 3 -50 12 -80 21 -30
8 -70 18 -89 21 -19 3 -37 7 -40 9 -3 2 -24 7 -46 10 -22 3 -62 10 -90 16 -56
10 -104 18 -173 26 -26 3 -58 7 -72 9 -133 21 -571 33 -750 20 -96 -7 -194
-15 -245 -21 -22 -2 -62 -6 -90 -9 -27 -3 -61 -8 -75 -10 -14 -3 -43 -7 -65
-10 -22 -2 -50 -7 -61 -9 -12 -2 -37 -7 -55 -10 -19 -3 -47 -8 -64 -11 -95
-16 -299 -63 -420 -95 -494 -134 -1002 -444 -1559 -954 -163 -148 -475 -466
-597 -607 -11 -13 -44 -51 -74 -84 -362 -410 -869 -1092 -1173 -1581 l-51 -81
70 -74 c38 -41 124 -132 192 -204 255 -272 1182 -1192 1502 -1490 213 -199
401 -370 515 -468 45 -39 139 -121 214 -188 23 -20 154 -129 291 -243 138
-115 257 -216 265 -225 8 -9 28 -26 44 -38 59 -46 345 -302 520 -467 233 -218
608 -600 727 -741 19 -22 36 -42 39 -45 44 -44 239 -279 356 -430 107 -138
312 -434 379 -547 6 -9 24 -40 41 -67 17 -28 34 -58 37 -66 4 -8 17 -31 29
-50 46 -75 189 -372 241 -500 128 -314 198 -570 262 -959 4 -22 10 -68 20
-146 26 -206 26 -696 0 -820 -2 -11 -7 -42 -9 -70 -3 -27 -7 -60 -10 -71 -2
-12 -7 -37 -10 -55 -102 -640 -438 -1406 -864 -1974 -79 -105 -82 -107 72 36
192 177 251 234 501 484 241 242 413 421 561 585 27 30 58 64 69 75 11 12 45
50 75 85 30 35 64 73 75 84 36 38 300 349 386 456 46 58 87 107 90 110 3 3 47
59 98 125 51 66 104 134 117 150 24 31 176 238 248 337 48 67 207 295 221 319
6 9 23 36 39 60 57 87 133 205 160 249 15 25 48 79 73 120 219 359 446 820
633 1285 17 44 36 89 41 100 16 38 71 180 86 225 8 25 21 59 28 75 45 101 286
820 340 1015 3 8 30 101 61 205 101 342 212 768 290 1113 15 67 30 122 34 122
4 0 8 -48 9 -107 2 -60 4 -135 6 -168 2 -33 6 -130 10 -215 3 -85 8 -189 10
-230 6 -122 18 -423 30 -720 2 -69 7 -172 10 -230 3 -58 8 -163 11 -235 8
-221 13 -325 18 -455 6 -127 12 -281 21 -490 2 -63 7 -176 10 -250 9 -202 14
-310 20 -460 l6 -135 -286 0 c-158 0 -290 -2 -294 -5 -7 -4 -55 -151 -66 -201
-2 -9 -17 -61 -33 -115 -34 -114 -50 -168 -242 -818 -103 -349 -138 -481 -129
-486 12 -8 37 -6 129 11 30 6 69 13 85 15 17 3 57 12 90 21 33 8 68 17 79 19
75 14 507 134 616 171 288 95 507 250 649 457 27 39 82 140 88 161 1 6 12 37
23 69 29 81 38 139 45 291 3 72 8 153 10 180 3 28 7 88 10 135 2 47 7 128 10
180 3 52 8 129 10 170 2 41 6 116 9 165 7 108 13 207 21 346 6 105 9 147 20
319 3 52 8 131 10 175 5 79 10 168 20 335 3 47 8 123 10 170 3 47 8 117 10
155 3 39 7 115 10 170 6 98 10 176 20 325 8 121 15 248 20 350 3 52 7 122 10
155 3 33 7 110 10 170 4 61 8 139 10 175 3 36 7 108 10 160 3 52 8 129 10 170
3 41 7 111 10 155 11 185 16 273 20 330 2 33 7 110 10 170 3 61 7 137 10 170
3 33 7 105 10 160 4 55 8 130 10 166 l4 65 -50 55 c-304 328 -840 868 -933
939 -55 41 -64 45 -116 45 -48 -1 -64 -6 -95 -30 -78 -59 -149 -152 -212 -278
-32 -64 -101 -163 -143 -208 -8 -8 -46 -51 -85 -94 -166 -188 -445 -452 -665
-629 -52 -42 -104 -84 -114 -93 -47 -39 -291 -217 -391 -285 -354 -241 -813
-497 -1022 -571 -379 -134 -742 -100 -1078 101 -360 216 -716 670 -889 1134
-59 159 -78 280 -79 509 0 102 9 289 18 339 2 14 6 41 9 60 51 341 190 603
381 717 105 63 165 77 325 77 128 -1 156 -4 235 -27 223 -67 450 -227 623
-441 31 -39 59 -73 62 -76 10 -9 78 -105 127 -180 181 -275 363 -662 499
-1068 31 -92 57 -171 59 -177 17 -77 26 -87 68 -80 121 22 346 142 669 359
202 135 281 197 398 315 226 228 318 453 270 656 -9 37 -74 359 -84 415 -2 14
-7 32 -10 40 -3 8 -7 29 -9 45 -3 17 -28 145 -57 285 -28 140 -54 264 -56 275
-2 11 -6 31 -9 45 -4 14 -8 36 -11 50 -2 14 -11 57 -19 95 -8 39 -17 81 -19
95 -5 26 -21 106 -31 150 -3 14 -8 39 -11 55 -3 17 -14 73 -25 125 -43 209
-77 376 -85 425 -3 17 -14 68 -24 115 -10 47 -21 99 -24 115 -3 17 -24 120
-47 230 -22 110 -43 209 -45 220 -2 11 -27 133 -55 270 -28 138 -52 259 -54
270 -1 11 -13 67 -25 125 -12 58 -24 114 -26 125 -2 11 -6 31 -9 45 -3 14 -7
36 -10 50 -3 14 -7 36 -10 50 -3 14 -7 36 -10 50 -3 14 -7 36 -10 50 -3 14 -7
34 -9 45 -2 11 -16 78 -31 149 -15 71 -28 139 -30 150 -2 12 -10 54 -19 93
-15 69 -19 88 -35 173 -7 33 -17 15 -191 -330z"/>
<path d="M1121 13188 c-12 -44 -50 -168 -83 -273 -21 -68 -145 -557 -153 -607
-3 -18 -10 -49 -15 -68 -11 -43 -66 -320 -74 -375 -6 -37 -13 -80 -22 -130 -6
-29 -13 -75 -19 -115 -2 -19 -6 -44 -9 -55 -2 -11 -7 -42 -10 -70 -4 -27 -9
-66 -11 -85 -7 -49 -14 -107 -20 -160 -3 -25 -7 -56 -10 -70 -4 -22 -8 -66
-20 -205 -2 -22 -6 -74 -9 -116 -3 -41 -8 -97 -10 -125 -27 -286 -27 -1056 -1
-1384 12 -159 23 -271 30 -330 2 -19 7 -62 10 -95 3 -33 7 -71 10 -85 3 -21
18 -122 31 -220 36 -273 141 -765 226 -1060 17 -58 31 -112 33 -120 14 -72
174 -532 261 -753 138 -347 278 -619 470 -907 187 -282 344 -471 614 -740 179
-179 238 -233 365 -336 33 -27 65 -54 70 -60 6 -5 37 -30 70 -55 33 -24 62
-46 65 -49 3 -3 30 -23 60 -45 30 -22 57 -42 60 -45 9 -11 164 -115 290 -197
557 -359 1200 -662 1950 -918 228 -77 675 -214 675 -205 0 1 12 -3 26 -9 27
-10 320 -87 362 -95 12 -2 29 -7 37 -10 8 -3 26 -7 40 -10 14 -2 43 -9 65 -14
22 -6 56 -14 75 -17 19 -3 49 -10 65 -15 17 -5 66 -16 110 -25 44 -9 89 -19
100 -21 11 -3 31 -7 45 -10 14 -2 57 -11 95 -19 39 -8 84 -17 100 -20 17 -2
41 -7 55 -10 49 -10 306 -56 390 -69 19 -3 44 -7 55 -10 25 -5 87 -14 140 -22
22 -3 65 -9 95 -14 30 -5 75 -11 100 -14 25 -4 56 -8 70 -10 14 -3 48 -7 75
-10 28 -4 61 -8 75 -11 14 -2 48 -7 75 -10 65 -7 131 -15 175 -21 19 -3 58 -7
85 -10 28 -2 66 -6 85 -9 19 -3 66 -7 105 -10 38 -3 81 -7 95 -10 14 -2 59 -6
100 -10 41 -3 95 -8 120 -10 25 -2 72 -6 105 -9 33 -3 96 -8 140 -11 44 -3
109 -7 145 -10 36 -3 110 -7 165 -10 55 -3 141 -7 190 -10 50 -2 154 -7 232
-10 223 -9 416 -21 483 -30 19 -3 60 -7 90 -10 30 -3 69 -7 85 -10 17 -2 46
-7 65 -9 83 -12 241 -41 334 -61 197 -44 534 -160 571 -196 5 -5 15 -9 23 -9
12 0 204 -116 246 -149 221 -176 365 -403 403 -639 10 -60 10 -216 1 -262 -14
-64 -16 -75 -31 -140 -9 -36 -19 -74 -23 -85 -10 -28 50 51 133 175 205 308
340 631 381 913 22 159 -8 494 -59 649 -73 223 -205 431 -399 627 -131 133
-332 294 -480 385 -25 15 -67 41 -95 58 -139 86 -418 225 -615 308 -313 132
-824 300 -1175 387 -33 8 -64 16 -70 17 -5 2 -21 6 -35 9 -14 4 -110 27 -215
52 -104 25 -217 52 -250 61 -33 8 -67 17 -76 19 -9 2 -96 24 -195 50 -98 26
-183 48 -189 49 -85 21 -523 146 -675 192 -63 20 -135 41 -160 48 -136 39
-545 175 -840 279 -278 98 -792 298 -955 372 -16 7 -111 49 -210 93 -914 406
-1655 842 -2325 1369 -30 24 -62 49 -70 57 -8 7 -44 37 -80 67 -36 29 -67 55
-70 58 -3 4 -41 37 -85 76 -99 87 -415 401 -517 515 -157 175 -378 456 -488
620 -24 36 -46 67 -49 70 -3 3 -12 17 -20 33 -8 15 -18 27 -23 27 -4 0 -8 5
-8 10 0 6 -21 43 -47 83 -25 39 -57 88 -69 107 -86 135 -300 544 -399 763 -60
134 -185 457 -240 622 -30 90 -107 342 -111 364 -3 14 -7 28 -10 33 -3 4 -7
16 -9 25 -2 10 -15 65 -30 123 -15 58 -28 112 -30 120 -2 8 -8 35 -14 60 -5
25 -12 56 -14 70 -3 14 -10 43 -15 65 -6 22 -13 56 -16 76 -3 20 -8 42 -10 50
-3 8 -8 32 -11 54 -3 22 -14 90 -25 151 -10 61 -22 133 -26 160 -3 27 -8 56
-9 64 -2 9 -6 43 -10 75 -4 33 -8 71 -10 85 -2 14 -7 52 -10 85 -3 33 -8 74
-10 90 -11 92 -19 203 -31 440 -14 300 -7 597 21 833 3 23 4 42 2 42 -2 0 -9
-19 -16 -42z"/>
<path d="M2106 4504 c4 -10 10 -21 13 -24 3 -3 15 -18 27 -35 109 -159 144
-209 183 -263 53 -73 259 -347 283 -377 9 -11 61 -76 116 -145 86 -109 390
-467 440 -518 9 -10 62 -67 117 -127 179 -195 533 -544 730 -720 55 -49 105
-94 111 -100 6 -5 35 -30 64 -55 30 -25 86 -72 125 -105 239 -206 614 -483
925 -687 145 -95 446 -278 456 -278 3 0 18 -8 32 -18 37 -25 154 -88 357 -192
226 -115 357 -175 566 -260 96 -39 183 -75 194 -80 181 -81 856 -285 1125
-339 30 -6 64 -13 75 -16 62 -13 235 -47 265 -51 19 -3 46 -7 60 -9 14 -3 42
-8 64 -11 21 -3 48 -7 60 -10 11 -2 44 -6 71 -9 28 -3 57 -8 65 -10 8 -2 44
-7 80 -10 36 -4 76 -8 90 -10 27 -4 135 -15 190 -20 215 -16 315 -19 625 -20
310 0 528 7 593 20 9 1 48 6 86 9 38 4 72 9 75 11 3 1 31 6 61 10 30 4 107 18
170 31 63 14 124 27 136 29 33 7 275 86 319 104 367 150 640 387 740 641 13
34 27 79 29 99 3 20 9 59 12 86 32 229 -56 456 -256 656 -84 84 -147 130 -285
209 -35 20 -211 90 -239 96 -10 2 -33 8 -50 13 -40 13 -198 47 -256 56 -101
14 -115 16 -245 31 -51 5 -158 13 -260 19 -44 2 -120 7 -170 10 -87 5 -272 10
-695 20 -263 6 -501 14 -615 20 -49 3 -144 7 -210 11 -198 9 -360 20 -435 29
-19 2 -71 7 -115 10 -44 4 -91 8 -105 10 -14 2 -55 7 -92 10 -37 3 -76 8 -87
10 -11 2 -47 6 -80 10 -33 3 -68 7 -78 9 -27 5 -92 15 -143 21 -25 3 -70 10
-100 15 -30 5 -71 12 -90 15 -39 6 -131 22 -170 30 -14 3 -36 7 -50 9 -191 37
-491 107 -725 170 -83 23 -461 135 -510 151 -22 8 -146 48 -275 90 -447 147
-1025 367 -1335 510 -27 12 -68 31 -90 40 -205 91 -699 340 -797 402 -21 12
-39 23 -42 23 -22 0 -634 383 -721 451 -5 5 -75 57 -155 117 -80 59 -156 117
-169 128 -24 20 -30 25 -69 58 -23 20 -23 20 -16 0z"/>
</g>
</svg>
